<svg id="vector" xmlns="http://www.w3.org/2000/svg" width="309.13" height="278.52" viewBox="0 0 309.13 278.52"><path fill="#FF000000" d="M74.14,189.34a10.29,10.29 0,1 0,10.29 10.28A10.28,10.28 0,0 0,74.14 189.34Z" stroke-opacity="0.2" fill-opacity="0.2" id="path_0"/><path fill="#FF000000" d="M144.08,199.62a10.29,10.29 0,1 0,-10.29 10.29A10.29,10.29 0,0 0,144.08 199.62Z" stroke-opacity="0.2" fill-opacity="0.2" id="path_1"/><path fill="#FF000000" d="M104.69,233.994m-10.147,1.647a10.28,10.28 125.78,1 1,20.294 -3.294a10.28,10.28 125.78,1 1,-20.294 3.294" stroke-opacity="0.2" fill-opacity="0.2" id="path_2"/><path fill="#FF000000" d="M137.886,268.223m-10.147,1.647a10.28,10.28 125.78,1 1,20.294 -3.294a10.28,10.28 125.78,1 1,-20.294 3.294" stroke-opacity="0.2" fill-opacity="0.2" id="path_3"/><path fill="#FF000000" d="M264.3,84.87A74.92,74.92 0,0 0,131 42.09,55.6 55.6,0 0,0 56,94.18a54.46,54.46 0,0 0,0.4 6.55,38.47 38.47,0 0,0 -5.71,-0.43 37.31,37.31 0,1 0,0 74.61H264.11a45,45 0,0 0,0.19 -90Z" stroke-opacity="0.2" fill-opacity="0.2" id="path_4"/><path fill="#FF000000" d="M203.73,199.62a10.29,10.29 0,1 0,-10.28 10.29A10.28,10.28 0,0 0,203.73 199.62Z" stroke-opacity="0.2" fill-opacity="0.2" id="path_5"/><path fill="#FF000000" d="M253.1,189.34a10.29,10.29 0,1 0,10.28 10.28A10.29,10.29 0,0 0,253.1 189.34Z" stroke-opacity="0.2" fill-opacity="0.2" id="path_6"/><path fill="#FF000000" d="M164.338,233.998m-3.934,9.497a10.28,10.28 67.5,1 1,7.868 -18.995a10.28,10.28 67.5,1 1,-7.868 18.995" stroke-opacity="0.2" fill-opacity="0.2" id="path_7"/><path fill="#FF000000" d="M197.53,258a10.29,10.29 0,1 0,10.29 10.28A10.28,10.28 0,0 0,197.53 258Z" stroke-opacity="0.2" fill-opacity="0.2" id="path_8"/><path fill="#FF000000" d="M223.995,233.998m-3.934,9.497a10.28,10.28 67.5,1 1,7.868 -18.995a10.28,10.28 67.5,1 1,-7.868 18.995" stroke-opacity="0.2" fill-opacity="0.2" id="path_9"/><path fill="#fff" d="M117.66,28.05a55.62,55.62 0,0 0,-75 52.09A54.63,54.63 0,0 0,43 86.7a37.31,37.31 0,1 0,-5.71 74.18H151V4.33A75.09,75.09 0,0 0,117.66 28.05Z" id="path_10"/><path fill="#fff" d="M60.77,175.3a10.29,10.29 0,1 0,10.29 10.29A10.29,10.29 0,0 0,60.77 175.3Z" id="path_11"/><path fill="#fff" d="M130.71,185.59a10.29,10.29 0,1 0,-10.29 10.28A10.29,10.29 0,0 0,130.71 185.59Z" id="path_12"/><path fill="#fff" d="M91.324,219.958m-10.147,1.647a10.28,10.28 125.78,1 1,20.294 -3.294a10.28,10.28 125.78,1 1,-20.294 3.294" id="path_13"/><path fill="#fff" d="M140.68,220A10.29,10.29 0,0 0,151 230.25V209.68A10.29,10.29 0,0 0,140.68 220Z" id="path_14"/><path fill="#fff" d="M124.518,254.196m-3.934,9.497a10.28,10.28 67.5,1 1,7.868 -18.995a10.28,10.28 67.5,1 1,-7.868 18.995" id="path_15"/><path fill="#ebebeb" d="M250.93,70.84A75,75 0,0 0,151 4.33V160.88h99.77a45,45 0,0 0,0.19 -90Z" id="path_16"/><path fill="#ebebeb" d="M190.36,185.59a10.29,10.29 0,1 0,-10.28 10.28A10.29,10.29 0,0 0,190.36 185.59Z" id="path_17"/><path fill="#ebebeb" d="M239.73,175.3A10.29,10.29 0,1 0,250 185.59,10.29 10.29,0 0,0 239.73,175.3Z" id="path_18"/><path fill="#ebebeb" d="M161.25,220A10.28,10.28 0,0 0,151 209.68v20.57A10.29,10.29 0,0 0,161.25 220Z" id="path_19"/><path fill="#ebebeb" d="M184.165,254.196m-3.934,9.497a10.28,10.28 67.5,1 1,7.868 -18.995a10.28,10.28 67.5,1 1,-7.868 18.995" id="path_20"/><path fill="#ebebeb" d="M210.617,219.958m-3.934,9.497a10.28,10.28 67.5,1 1,7.868 -18.995a10.28,10.28 67.5,1 1,-7.868 18.995" id="path_21"/></svg>