<svg id="vector" xmlns="http://www.w3.org/2000/svg" width="317.28" height="241.65" viewBox="0 0 317.28 241.65"><path fill="#FF000000" d="M271.2,149.1A77,77 0,0 0,152.42 88.69a46.67,46.67 0,0 0,-37.88 -19.37h0a46.74,46.74 0,0 0,-46 55,56.91 56.91,0 0,0 -11.46,34.33 58.38,58.38 0,0 0,0.39 6.52l-0.19,0.19a39,39 0,0 0,-5.66 -0.42,38.35 38.35,0 0,0 0,76.69H271a46.28,46.28 0,0 0,0.2 -92.55Z" stroke-opacity="0.2" fill-opacity="0.2" id="path_0"/><path fill="#FF000000" d="M114.54,62.24a5.61,5.61 0,0 0,5.61 -5.61V20.41a5.61,5.61 0,1 0,-11.22 0V56.63A5.61,5.61 0,0 0,114.54 62.24Z" stroke-opacity="0.2" fill-opacity="0.2" id="path_1"/><path fill="#FF000000" d="M68.55,78a5.61,5.61 0,0 0,7.93 -7.94L50.87,44.46a5.61,5.61 0,0 0,-7.93 7.94Z" stroke-opacity="0.2" fill-opacity="0.2" id="path_2"/><path fill="#FF000000" d="M18.89,121.68H55.11a5.62,5.62 0,0 0,0 -11.23H18.89a5.62,5.62 0,0 0,0 11.23Z" stroke-opacity="0.2" fill-opacity="0.2" id="path_3"/><path fill="#FF000000" d="M156.56,79.65a5.6,5.6 0,0 0,4 -1.64L186.14,52.4a5.61,5.61 0,0 0,-7.94 -7.94L152.6,70.07a5.61,5.61 0,0 0,4 9.58Z" stroke-opacity="0.2" fill-opacity="0.2" id="path_4"/><path fill="#fff" d="M120.94,90.32A57.08,57.08 0,0 0,44.22 150.6a39.28,39.28 0,0 0,-5.87 -0.44,38.35 38.35,0 1,0 0,76.69H152.77L152,67.17A77.25,77.25 0,0 0,120.94 90.32Z" id="path_5"/><path fill="#ebebeb" d="M257.93,134.3A77,77 0,0 0,152 67.17l0.76,159.68h105a46.28,46.28 0,0 0,0.21 -92.55Z" id="path_6"/><path fill="#fdcd02" d="M54.52,101.26A46.74,46.74 0,0 0,101.26 148V54.52A46.74,46.74 0,0 0,54.52 101.26Z" id="path_7"/><path fill="#fdcd02" d="M95.65,5.61V41.83a5.61,5.61 0,0 0,5.61 5.61V0A5.61,5.61 0,0 0,95.65 5.61Z" id="path_8"/><path fill="#fdcd02" d="M95.65,160.69v36.22a5.61,5.61 0,0 0,5.61 5.61V155.08A5.61,5.61 0,0 0,95.65 160.69Z" id="path_9"/><path fill="#fdcd02" d="M55.27,63.21a5.61,5.61 0,0 0,7.94 -7.94L37.6,29.66a5.61,5.61 0,0 0,-7.94 7.94Z" id="path_10"/><path fill="#fdcd02" d="M47.44,101.26a5.61,5.61 0,0 0,-5.61 -5.61H5.61a5.62,5.62 0,0 0,0 11.23H41.83A5.62,5.62 0,0 0,47.44 101.26Z" id="path_11"/><path fill="#fdcd02" d="M55.27,139.32 L29.66,164.93a5.61,5.61 0,0 0,7.94 7.94l25.61,-25.61a5.61,5.61 0,0 0,-7.94 -7.94Z" id="path_12"/><path fill="#ebbf02" d="M148,101.26a46.74,46.74 0,0 0,-46.74 -46.74h0V148h0A46.73,46.73 0,0 0,148 101.26Z" id="path_13"/><path fill="#ebbf02" d="M106.88,41.83V5.61A5.62,5.62 0,0 0,101.26 0V47.44A5.62,5.62 0,0 0,106.88 41.83Z" id="path_14"/><path fill="#ebbf02" d="M106.88,196.91V160.69a5.62,5.62 0,0 0,-5.62 -5.61v47.44A5.62,5.62 0,0 0,106.88 196.91Z" id="path_15"/><path fill="#ebbf02" d="M147.26,139.32a5.61,5.61 0,0 0,-7.94 7.94l25.61,25.61a5.61,5.61 0,0 0,7.94 -7.94Z" id="path_16"/><path fill="#ebbf02" d="M196.91,95.65H160.69a5.62,5.62 0,0 0,0 11.23h36.22a5.62,5.62 0,0 0,0 -11.23Z" id="path_17"/><path fill="#ebbf02" d="M143.29,64.85a5.64,5.64 0,0 0,4 -1.64L172.87,37.6a5.61,5.61 0,0 0,-7.94 -7.94L139.32,55.27a5.61,5.61 0,0 0,4 9.58Z" id="path_18"/></svg>